<?xml version="1.0" encoding="UTF-8"?>
<svg id="_图层_2" data-name="图层 2" xmlns="http://www.w3.org/2000/svg" viewBox="0 0 60 63.75">
  <defs>
    <style>
      .cls-1 {
        fill: #1e3050;
      }
    </style>
  </defs>
  <g id="_图层_1-2" data-name="图层 1">
    <path class="cls-1" d="M15,31.88c3.16,0,5.62,2.46,5.62,5.62s-2.46,5.62-5.62,5.62-5.62-2.46-5.62-5.62,2.46-5.62,5.62-5.62ZM30,37.5c0-8.32-6.68-15-15-15S0,29.18,0,37.5c0,4.69,2.23,9.02,5.62,11.72v12.3c0,1.29,1.05,2.23,2.23,2.23.35,0,.82-.12,1.05-.23l6.09-3.52,6.09,3.52c.35.12.7.23,1.05.23,1.29,0,2.23-.94,2.23-2.23v-12.3c3.4-2.81,5.62-7.03,5.62-11.72ZM41.25,7.97l10.78,10.78h-7.97c-1.52,0-2.81-1.29-2.81-2.81v-7.97ZM22.5,5.62h13.12v10.31c0,4.69,3.75,8.44,8.44,8.44h10.31v28.12c0,1.05-.82,1.88-1.88,1.88h-22.5v5.62h22.5c4.1,0,7.5-3.4,7.5-7.5v-30.59c0-1.99-.82-3.98-2.23-5.39l-14.3-14.3c-1.41-1.41-3.28-2.23-5.27-2.23h-15.7c-4.1,0-7.5,3.4-7.5,7.5v9.38c1.99,0,3.87.23,5.62.82V7.5c0-1.05.82-1.88,1.88-1.88Z"/>
  </g>
</svg>